<svg width="31" height="22" viewBox="0 0 31 22" fill="none" xmlns="http://www.w3.org/2000/svg">
<path fill-rule="evenodd" clip-rule="evenodd" d="M1.81656 4.93412C1.8165 5.7627 2.14596 6.55736 2.73244 7.14328C3.31892 7.72921 4.11439 8.05841 4.94385 8.05846C5.77331 8.05852 6.56882 7.72942 7.15537 7.14356C7.74193 6.55771 8.07148 5.76309 8.07153 4.93452C8.07159 4.10595 7.74213 3.31129 7.15565 2.72536C6.56917 2.13943 5.77371 1.81023 4.94424 1.81018C4.11478 1.81013 3.31927 2.13923 2.73272 2.72508C2.14616 3.31093 1.81661 4.10555 1.81656 4.93412ZM4.94373 9.87248C3.88532 9.87229 2.8549 9.53277 2.00409 8.90387C1.15328 8.27496 0.526999 7.38988 0.217387 6.37885C-0.0922245 5.36781 -0.0688178 4.2842 0.284164 3.28745C0.637145 2.29069 1.30106 1.43343 2.17824 0.841767C3.05541 0.250109 4.09953 -0.0446962 5.15697 0.000724021C6.21441 0.0461443 7.22934 0.429392 8.05243 1.09408C8.87553 1.75877 9.46333 2.66981 9.72936 3.69315C9.99538 4.71649 9.92559 5.79811 9.53024 6.77886L11.4753 8.07702C11.461 8.12246 11.4475 8.16815 11.4349 8.21407L11.1241 9.32262L10.4118 9.79825L8.40625 8.45978C7.51436 9.33247 6.29158 9.87256 4.94373 9.87248ZM1.81579 17.0578C1.81584 16.2292 2.14539 15.4346 2.73195 14.8488C3.3185 14.2629 4.11401 13.9338 4.94347 13.9339C5.77294 13.9339 6.5684 14.2631 7.15488 14.849C7.74137 15.435 8.07082 16.2296 8.07076 17.0582C8.07071 17.8868 7.74116 18.6814 7.1546 19.2672C6.56805 19.8531 5.77254 20.1822 4.94308 20.1821C4.11362 20.1821 3.31815 19.8529 2.73167 19.267C2.14519 18.681 1.81574 17.8864 1.81579 17.0578ZM4.94359 12.1198C3.8861 12.1199 2.8565 12.4587 2.00601 13.0865C1.15552 13.7142 0.528973 14.5979 0.218393 15.6077C-0.0921863 16.6175 -0.0704276 17.7001 0.280474 18.6966C0.631375 19.6931 1.29292 20.551 2.16795 21.1441C3.04298 21.7373 4.08536 22.0345 5.142 21.9922C6.19864 21.9498 7.21384 21.5701 8.03848 20.9089C8.86313 20.2476 9.45375 19.3395 9.72361 18.3182C9.99347 17.2968 9.92833 16.2159 9.53777 15.2342L30.1659 1.49641L28.2471 1.65445C25.5411 1.93871 22.9206 2.76675 20.5432 4.08877L14.3385 7.53501C14.1054 7.66502 13.9006 7.83991 13.7357 8.04957C13.5708 8.25922 13.4492 8.49946 13.3779 8.75639L12.8673 10.5825L8.42207 13.5511C7.49772 12.6332 6.24695 12.1186 4.94359 12.1198ZM14.3138 14.4686L14.338 14.4827L20.5423 17.9297C22.9195 19.252 25.5399 20.0804 28.2459 20.365L27.9688 19.003L25.3467 17.3579L17.6755 12.2214L14.3138 14.4686Z" fill="#8162FF"/>
</svg>
